<svg width="90" height="90" viewBox="0 0 58 58" fill="none" xmlns="http://www.w3.org/2000/svg">
<path d="M4 38.1322H16.0819V41.6822H12.6158V50.2141H7.58139V41.6822H4V38.1322Z" fill="white"/>
<path d="M21.8477 43.0138L19.3799 50.2141H14.6895L19.2897 38.1322H24.3837L29.0948 50.2141H24.3467L21.8477 43.0138Z" fill="white"/>
<path d="M28.1641 38.1322H39.7813V41.6822H36.4494V50.2141H31.6086V41.6822H28.1641V38.1322Z" fill="white"/>
<path d="M46.0097 43.0138L43.5407 50.2141H38.8497L43.4521 38.1322H48.5451L53.2551 50.2141H48.5081L46.0097 43.0138Z" fill="white"/>
<path fill-rule="evenodd" clip-rule="evenodd" d="M46.2871 15.2668C45.8394 14.3972 45.2496 13.5638 44.5159 12.7822C42.8671 11.0249 40.5409 9.56264 37.7881 8.55411C35.0125 7.53777 31.8468 7 28.6297 7C25.4126 7 22.2468 7.53777 19.4728 8.55411C16.7185 9.56275 14.3921 11.025 12.7434 12.7822C12.0102 13.5637 11.4185 14.3983 10.9708 15.2684C14.5547 14.4125 20.6852 13.2826 26.3774 13.163C26.9265 13.1514 27.3046 13.3251 27.5535 13.6366C27.8567 14.016 27.834 15.3683 27.8265 15.9733L27.6647 31.6112C27.9853 31.6217 28.3073 31.6284 28.6297 31.6284C28.9548 31.6284 29.2786 31.6232 29.5992 31.6127L29.4374 15.9733C29.4289 15.3683 29.4055 14.0158 29.7097 13.6365C29.9593 13.3251 30.3361 13.1514 30.885 13.1629C36.5748 13.2815 42.7039 14.4116 46.2871 15.2668Z" fill="white"/>
<path fill-rule="evenodd" clip-rule="evenodd" d="M46.9717 17.4309C41.7216 16.2544 38.2156 16.0369 34.7562 15.8466C31.7407 15.6804 31.7014 16.7478 32.0023 18.7877C32.0221 18.9121 32.0463 19.0691 32.075 19.248C33.0865 25.1865 34.346 30.297 34.5624 31.1644C41.9138 29.4986 47.2154 24.8801 47.2154 19.4547C47.2154 18.7715 47.1321 18.0946 46.9717 17.4309Z" fill="white"/>
<path fill-rule="evenodd" clip-rule="evenodd" d="M25.2543 18.786C25.5556 16.7474 25.517 15.6805 22.5027 15.8465C19.043 16.0367 15.5369 16.254 10.2862 17.4307C10.1258 18.094 10.0415 18.7697 10.0415 19.4525C10.0415 21.7961 11.0036 24.0638 12.824 26.0121C14.4737 27.7767 16.8016 29.2451 19.5576 30.2585C20.5552 30.6245 21.6078 30.9245 22.6921 31.1644C22.8956 30.3523 24.1837 25.1384 25.2059 19.097C25.2248 18.9813 25.2422 18.8744 25.2543 18.786Z" fill="white"/>
</svg>
